<?xml version="1.0" encoding="utf-8"?>
<!-- Uploaded to: SVG Repo, www.svgrepo.com, Generator: SVG Repo Mixer Tools -->
<svg width="800px" height="800px" viewBox="0 -6.88 48.781 48.781" xmlns="http://www.w3.org/2000/svg">
  <g id="Group_14" data-name="Group 14" transform="translate(-487.863 -44.3)">
    <path id="Path_34" data-name="Path 34" d="M504.163,45.39s9.881-.272,13.994,5.287-1.773,9.712-1.773,9.712V78.328h-23a1,1,0,0,1-1-1V60.389s-6.193-4.154-2.08-9.712S503.84,45.39,503.84,45.39" fill="none" stroke="#000000" stroke-linecap="round" stroke-linejoin="round" stroke-width="2"/>
    <path id="Path_35" data-name="Path 35" d="M534.157,50.512c-4.113-5.625-13.994-5.184-13.994-5.184h-.323s-.305-.007-.811.009c-.545-.017-.866-.009-.866-.009h-.323s-.5-.011-1.294.032c-.856-.046-1.383-.032-1.383-.032h-.323s-.305-.007-.811.009c-.545-.017-.866-.009-.866-.009h-.323s-.305-.007-.811.009c-.545-.017-.866-.009-.866-.009h-.323s-.5-.011-1.294.032c-.856-.046-1.383-.032-1.383-.032h-.323s-.3-.007-.811.009c-.545-.017-.866-.009-.866-.009h-.323a15.571,15.571,0,0,0-2.178.03.512.512,0,0,0,.178-.03h.323s9.881-.241,13.994,5.318-1.773,9.743-1.773,9.743V78.328h15a1,1,0,0,0,1-1V60.175S538.27,56.137,534.157,50.512Z" fill="none" stroke="#000000" stroke-linecap="round" stroke-linejoin="round" stroke-width="2"/>
  </g>
</svg>